# This file uses centimeters as units for non-parametric coordinates.

mtllib gun.mtl
g default
v -0.948581 0.515385 1.252175
v -0.970006 0.576559 1.254280
v -1.025683 0.609776 1.252763
v -1.089561 0.599495 1.248334
v -1.131750 0.550525 1.243067
v -1.132510 0.485780 1.239424
v -1.091484 0.435556 1.239112
v -1.027870 0.423352 1.242275
v -0.971433 0.454879 1.247434
v -1.075926 0.398235 3.361117
v -1.097351 0.459409 3.363221
v -1.153028 0.492627 3.361704
v -1.216906 0.482345 3.357276
v -1.259095 0.433375 3.352008
v -1.259855 0.368631 3.348366
v -1.218829 0.318406 3.348053
v -1.155215 0.306202 3.351216
v -1.098778 0.337729 3.356375
v -1.041454 0.397715 3.363169
v -1.070588 0.480901 3.366031
v -1.146299 0.526070 3.363968
v -1.233161 0.512089 3.357947
v -1.290530 0.445499 3.350784
v -1.291563 0.357459 3.345831
v -1.235776 0.289163 3.345405
v -1.149272 0.272567 3.349707
v -1.072529 0.315439 3.356722
v -0.814583 0.530892 0.418015
v -0.855228 0.646942 0.422007
v -0.960851 0.709957 0.419130
v -1.082031 0.690453 0.410729
v -1.162066 0.597555 0.400736
v -1.163506 0.474731 0.393826
v -1.085679 0.379452 0.393233
v -0.964999 0.356300 0.399234
v -0.857935 0.416109 0.409021
v -1.023630 0.423634 2.898742
v -1.052169 0.348070 2.892822
v -1.122651 0.308697 2.886379
v -1.202096 0.323939 2.882428
v -1.253331 0.386662 2.882819
v -1.252383 0.467519 2.887367
v -1.199694 0.528675 2.893946
v -1.119920 0.541515 2.899476
v -1.050387 0.500031 2.901371
v -0.988123 0.418891 2.975653
v -1.026624 0.316951 2.967665
v -1.121708 0.263834 2.958973
v -1.228885 0.284395 2.953643
v -1.298004 0.369013 2.954170
v -1.296725 0.478094 2.960307
v -1.225645 0.560598 2.969182
v -1.118024 0.577920 2.976643
v -1.024220 0.521955 2.979198
v -0.993475 0.399533 3.320856
v -1.035820 0.287416 3.312071
v -1.140397 0.228997 3.302512
v -1.258274 0.251611 3.296650
v -1.334293 0.344677 3.297229
v -1.332886 0.464647 3.303978
v -1.254710 0.555388 3.313739
v -1.136346 0.574439 3.321945
v -1.033176 0.512888 3.324756
vt 0.691006 0.495817
vt 0.676125 0.495535
vt 0.957879 0.609500
vt 0.949889 0.626529
vt 0.661244 0.495253
vt 0.955695 0.590810
vt 0.646362 0.494971
vt 0.943481 0.576526
vt 0.750532 0.496945
vt 0.735651 0.496663
vt 0.900056 0.623872
vt 0.894126 0.606113
vt 0.720769 0.496381
vt 0.915025 0.635156
vt 0.631481 0.494689
vt 0.899436 0.588380
vt 0.886923 0.432723
vt 0.872593 0.432678
vt 0.865838 0.010745
vt 0.886471 0.010801
vt 0.886306 0.447386
vt 0.870997 0.446870
vt 0.858363 0.432062
vt 0.845174 0.010992
vt 0.970314 0.645720
vt 0.866337 0.505648
vt 0.855391 0.446350
vt 0.957114 0.633039
vt 0.967583 0.611078
vt 0.981128 0.579110
vt 0.964598 0.586932
vt 0.943877 0.431988
vt 0.929816 0.432451
vt 0.948413 0.011978
vt 0.969118 0.012800
vt 0.948790 0.446018
vt 0.932550 0.447093
vt 0.915591 0.432681
vt 0.927742 0.011435
vt 0.830521 0.430744
vt 0.989857 0.014039
vt 0.865977 0.606886
vt 0.877125 0.640069
vt 0.916924 0.447508
vt 0.821704 0.442625
vt 0.884732 0.606124
vt 0.892323 0.629398
vt 0.904887 0.661436
vt 0.875126 0.573322
vt 0.911820 0.644148
vt 0.891656 0.582437
vt 0.705888 0.496099
vt 0.933768 0.636158
vt 0.901269 0.432762
vt 0.907105 0.011048
vt 0.901573 0.447572
vt 0.939967 0.663559
vt 0.936169 0.645492
vt 0.844297 0.431486
vt 0.824476 0.011661
vt 0.839158 0.445245
vt 0.958038 0.552726
vt 0.948641 0.568471
vt 0.884587 0.506295
vt 0.985803 0.614040
vt 0.902731 0.506478
vt 0.921018 0.506143
vt 0.939665 0.505145
vt 0.958817 0.503341
vt 0.808991 0.499907
vt 0.828645 0.502540
vt 0.847756 0.504479
vt 0.670449 0.009689
vt 0.685330 0.009971
vt 0.655567 0.009407
vt 0.774619 0.011664
vt 0.759737 0.011381
vt 0.744856 0.011099
vt 0.729974 0.010817
vt 0.715093 0.010535
vt 0.700211 0.010253
vt 0.765414 0.497227
vt 0.640686 0.009125
vt 0.924918 0.543316
vt 0.978632 0.500625
vt 0.965933 0.443324
vt 0.957698 0.431570
vt 0.803733 0.012844
vt 0.924713 0.561913
vt 0.925529 0.571594
vn -0.941930 -0.327313 -0.075059
vn -0.941930 -0.327313 -0.075059
vn -0.941930 -0.327313 -0.075059
vn -0.941930 -0.327313 -0.075059
vn -0.509199 -0.857075 -0.078357
vn -0.509199 -0.857075 -0.078357
vn -0.509199 -0.857075 -0.078357
vn -0.509199 -0.857075 -0.078357
vn 0.161789 -0.985799 -0.044991
vn 0.161789 -0.985799 -0.044991
vn 0.161789 -0.985799 -0.044991
vn 0.161789 -0.985799 -0.044991
vn 0.757078 -0.653257 0.009427
vn 0.757078 -0.653257 0.009427
vn 0.757078 -0.653257 0.009427
vn 0.757078 -0.653257 0.009427
vn 0.998119 -0.015051 0.059434
vn 0.998119 -0.015051 0.059434
vn 0.998119 -0.015051 0.059434
vn 0.998119 -0.015051 0.059434
vn 0.772131 0.630199 0.081631
vn 0.772131 0.630198 0.081631
vn 0.772131 0.630199 0.081631
vn 0.772131 0.630199 0.081631
vn 0.184850 0.980573 0.065632
vn 0.184850 0.980573 0.065632
vn 0.184850 0.980573 0.065632
vn 0.184850 0.980573 0.065632
vn -0.488920 0.872123 0.018922
vn -0.488920 0.872123 0.018922
vn -0.488920 0.872123 0.018922
vn -0.488920 0.872123 0.018922
vn -0.933920 0.355600 -0.036640
vn -0.933920 0.355600 -0.036640
vn -0.933920 0.355600 -0.036640
vn -0.933920 0.355600 -0.036640
vn -0.060182 -0.055363 0.996651
vn -0.060186 -0.055363 0.996651
vn -0.060186 -0.055363 0.996651
vn -0.060182 -0.055363 0.996651
vn -0.060175 -0.055365 0.996651
vn -0.060175 -0.055365 0.996651
vn -0.060175 -0.055365 0.996651
vn -0.060175 -0.055365 0.996651
vn -0.060173 -0.055363 0.996652
vn -0.060173 -0.055363 0.996651
vn -0.060178 -0.055364 0.996651
vn -0.060178 -0.055364 0.996651
vn -0.060184 -0.055366 0.996651
vn -0.060184 -0.055366 0.996651
vn -0.060178 -0.055364 0.996651
vn -0.060178 -0.055364 0.996651
vn -0.060179 -0.055363 0.996651
vn -0.060179 -0.055363 0.996651
vn 0.941768 0.327167 0.077689
vn 0.941749 0.327150 0.077985
vn 0.940664 0.326241 0.093375
vn 0.940664 0.326241 0.093375
vn 0.509400 0.857254 0.075015
vn 0.509381 0.857237 0.075335
vn 0.508412 0.856318 0.090758
vn 0.508412 0.856318 0.090758
vn -0.161516 0.986039 0.040495
vn -0.161528 0.986029 0.040691
vn -0.162472 0.985096 0.056479
vn -0.162472 0.985096 0.056479
vn -0.757059 0.653274 -0.009718
vn -0.757058 0.653276 -0.009743
vn -0.757946 0.652285 0.006581
vn -0.757945 0.652285 0.006581
vn -0.998533 0.014645 -0.052124
vn -0.998520 0.014658 -0.052369
vn -0.999273 0.013723 -0.035577
vn -0.999273 0.013723 -0.035577
vn -0.772935 -0.630950 -0.066882
vn -0.772918 -0.630934 -0.067234
vn -0.773639 -0.631629 -0.050269
vn -0.773639 -0.631629 -0.050269
vn -0.185941 -0.981432 -0.047094
vn -0.185925 -0.981421 -0.047384
vn -0.186852 -0.981910 -0.030637
vn -0.186852 -0.981910 -0.030637
vn 0.487828 -0.872937 -0.002021
vn 0.487835 -0.872934 -0.002115
vn 0.486655 -0.873480 0.014130
vn 0.486655 -0.873480 0.014130
vn 0.933225 -0.356170 0.047259
vn 0.933216 -0.356177 0.047394
vn 0.931991 -0.356946 0.063103
vn 0.931991 -0.356946 0.063103
vn 0.935078 -0.347826 -0.068167
vn 0.935094 -0.347864 -0.067756
vn 0.492549 -0.861223 -0.125261
vn 0.492541 -0.861379 -0.124215
vn -0.177173 -0.968659 -0.174095
vn -0.177271 -0.968857 -0.172891
vn -0.760669 -0.620149 -0.191824
vn -0.760787 -0.620251 -0.191029
vn -0.985188 0.021128 -0.170170
vn -0.985188 0.021128 -0.170170
vn -0.745824 0.655379 -0.119268
vn -0.745707 0.655365 -0.120070
vn -0.154344 0.986012 -0.062916
vn -0.154250 0.985948 -0.064135
vn 0.512710 0.858122 -0.027479
vn 0.512716 0.858084 -0.028537
vn 0.943060 0.331308 -0.029547
vn 0.943044 0.331316 -0.029960
vn 0.929906 -0.357866 0.084893
vn 0.929996 -0.357833 0.084046
vn 0.485304 -0.873801 0.030855
vn 0.485487 -0.873773 0.028687
vn -0.187697 -0.982121 -0.014400
vn -0.187570 -0.982106 -0.016899
vn -0.774216 -0.632224 -0.029718
vn -0.774182 -0.632186 -0.031367
vn -0.999894 0.012174 -0.007945
vn -0.999894 0.012174 -0.007946
vn -0.759146 0.649644 0.040746
vn -0.759181 0.649498 0.042388
vn -0.164535 0.981921 0.093592
vn -0.164665 0.981659 0.096077
vn 0.505746 0.853453 0.125856
vn 0.505561 0.853241 0.128013
vn 0.937997 0.324307 0.122422
vn 0.937907 0.324246 0.123268
vn 0.637961 -0.296633 0.710644
vn 0.637961 -0.296633 0.710644
vn 0.311558 -0.668268 0.675536
vn 0.311558 -0.668268 0.675536
vn -0.174221 -0.739639 0.650062
vn -0.174221 -0.739639 0.650062
vn -0.589334 -0.485411 0.645803
vn -0.589334 -0.485411 0.645803
vn -0.746963 -0.028607 0.664250
vn -0.746963 -0.028607 0.664250
vn -0.578666 0.423568 0.696947
vn -0.578666 0.423568 0.696947
vn -0.157734 0.665945 0.729135
vn -0.157734 0.665945 0.729135
vn 0.326209 0.580836 0.745800
vn 0.326209 0.580836 0.745800
vn 0.643787 0.200068 0.738587
vn 0.643788 0.200068 0.738587
s off
g pPipe2
usemtl lambert2SG
f 2/1/1 1/2/2 10/74/3 11/81/4
f 3/52/5 2/1/6 11/81/7 12/80/8
f 4/13/9 3/52/10 12/80/11 13/79/12
f 5/10/13 4/13/14 13/79/15 14/78/16
f 6/9/17 5/10/18 14/78/19 15/77/20
f 7/82/21 6/9/22 15/77/23 16/76/24
f 8/7/25 7/15/26 16/83/27 17/75/28
f 9/5/29 8/7/30 17/75/31 18/73/32
f 1/2/33 9/5/34 18/73/35 10/74/36
s 1
f 11/4/37 10/3/38 19/29/39 20/28/40
f 12/53/41 11/4/37 20/28/40 21/58/42
f 13/14/43 12/53/41 21/58/42 22/50/44
f 14/11/45 13/14/43 22/50/44 23/47/46
f 15/12/47 14/11/45 23/47/46 24/46/48
f 16/16/49 15/12/47 24/46/48 25/51/50
f 17/8/51 16/90/49 25/89/50 26/63/52
f 18/6/53 17/8/51 26/63/52 27/31/54
f 10/3/38 18/6/53 27/31/54 19/29/39
s 2
f 45/17/55 37/18/56 28/19/57 29/20/58
s 3
f 44/54/59 45/17/60 29/20/61 30/55/62
s 4
f 43/38/63 44/54/64 30/55/65 31/39/66
s 5
f 42/33/67 43/38/68 31/39/69 32/34/70
s 6
f 41/32/71 42/33/72 32/34/73 33/35/74
s 7
f 40/87/75 41/32/76 33/35/77 34/41/78
s 8
f 39/59/79 40/40/80 34/88/81 35/60/82
s 9
f 38/23/83 39/59/84 35/60/85 36/24/86
s 10
f 37/18/87 38/23/88 36/24/89 28/19/90
f 46/22/91 47/27/92 38/23/88 37/18/87
s 9
f 47/27/93 48/61/94 39/59/84 38/23/83
s 8
f 48/61/95 49/45/96 40/40/80 39/59/79
s 7
f 49/86/97 50/36/98 41/32/76 40/87/75
s 6
f 50/36/99 51/37/100 42/33/72 41/32/71
s 5
f 51/37/101 52/44/102 43/38/68 42/33/67
s 4
f 52/44/103 53/56/104 44/54/64 43/38/63
s 3
f 53/56/105 54/21/106 45/17/60 44/54/59
s 2
f 54/21/107 46/22/108 37/18/56 45/17/55
s 10
f 55/26/109 56/72/110 47/27/92 46/22/91
s 9
f 56/72/111 57/71/112 48/61/94 47/27/93
s 8
f 57/71/113 58/70/114 49/45/96 48/61/95
s 7
f 58/85/115 59/69/116 50/36/98 49/86/97
s 6
f 59/69/117 60/68/118 51/37/100 50/36/99
s 5
f 60/68/119 61/67/120 52/44/102 51/37/101
s 4
f 61/67/121 62/66/122 53/56/104 52/44/103
s 3
f 62/66/123 63/64/124 54/21/106 53/56/105
s 2
f 63/64/125 55/26/126 46/22/108 54/21/107
s 10
f 19/29/127 27/31/128 56/30/110 55/65/109
s 9
f 27/31/129 26/63/130 57/62/112 56/30/111
s 8
f 26/63/131 25/89/132 58/84/114 57/62/113
s 7
f 25/51/133 24/46/134 59/42/116 58/49/115
s 6
f 24/46/135 23/47/136 60/43/118 59/42/117
s 5
f 23/47/137 22/50/138 61/48/120 60/43/119
s 4
f 22/50/139 21/58/140 62/57/122 61/48/121
s 3
f 21/58/141 20/28/142 63/25/124 62/57/123
s 2
f 20/28/143 19/29/144 55/65/126 63/25/125
g default
v 0.938186 0.516830 1.283915
v 0.916005 0.577675 1.287317
v 0.859843 0.610050 1.289127
v 0.795976 0.598806 1.288498
v 0.754291 0.549205 1.285725
v 0.754291 0.484454 1.282106
v 0.795976 0.434853 1.279333
v 0.859843 0.423609 1.278704
v 0.916005 0.455984 1.280514
v 0.938186 0.398721 3.396645
v 0.916005 0.459566 3.400046
v 0.859843 0.491941 3.401856
v 0.795976 0.480698 3.401227
v 0.754291 0.431096 3.398454
v 0.754291 0.366346 3.394835
v 0.795976 0.316744 3.392062
v 0.859843 0.305500 3.391433
v 0.916005 0.337875 3.393243
v 0.972723 0.398721 3.396645
v 0.942561 0.481459 3.401270
v 0.866190 0.525483 3.403731
v 0.779344 0.510194 3.402876
v 0.722660 0.442745 3.399106
v 0.722660 0.354697 3.394184
v 0.779344 0.287247 3.390413
v 0.866190 0.271958 3.389558
v 0.942561 0.315982 3.392019
v 1.022121 0.533978 0.443273
v 0.980043 0.649405 0.449726
v 0.873499 0.710822 0.453159
v 0.752342 0.689492 0.451967
v 0.673262 0.595396 0.446707
v 0.673262 0.472561 0.439840
v 0.752342 0.378464 0.434579
v 0.873499 0.357134 0.433387
v 0.980043 0.418551 0.436820
v 0.962521 0.424696 2.931991
v 0.934821 0.348709 2.927743
v 0.864681 0.308277 2.925483
v 0.784921 0.322319 2.926268
v 0.732862 0.384264 2.929731
v 0.732862 0.465128 2.934252
v 0.784921 0.527074 2.937715
v 0.864681 0.541116 2.938500
v 0.934821 0.500684 2.936239
v 1.002603 0.420522 3.006653
v 0.965234 0.318011 3.000922
v 0.870612 0.263466 2.997873
v 0.763010 0.282409 2.998932
v 0.692779 0.365977 3.003604
v 0.692779 0.475068 3.009702
v 0.763011 0.558636 3.014374
v 0.870611 0.577579 3.015433
v 0.965234 0.523034 3.012384
v 1.018069 0.401241 3.351556
v 0.976969 0.288495 3.345253
v 0.872900 0.228505 3.341899
v 0.754556 0.249340 3.343064
v 0.677313 0.341251 3.348202
v 0.677313 0.461232 3.354909
v 0.754556 0.553143 3.360048
v 0.872900 0.573978 3.361212
v 0.976969 0.513987 3.357859
vt 0.691006 0.495817
vt 0.676125 0.495535
vt 0.957879 0.609500
vt 0.949889 0.626529
vt 0.661244 0.495253
vt 0.955695 0.590810
vt 0.646362 0.494971
vt 0.943481 0.576526
vt 0.750532 0.496945
vt 0.735651 0.496663
vt 0.900056 0.623872
vt 0.894126 0.606113
vt 0.720769 0.496381
vt 0.915025 0.635156
vt 0.631481 0.494689
vt 0.899436 0.588380
vt 0.886923 0.432723
vt 0.872593 0.432678
vt 0.865838 0.010745
vt 0.886471 0.010801
vt 0.886306 0.447386
vt 0.870997 0.446870
vt 0.858363 0.432062
vt 0.845174 0.010992
vt 0.970314 0.645720
vt 0.866337 0.505648
vt 0.855391 0.446350
vt 0.957114 0.633039
vt 0.967583 0.611078
vt 0.981128 0.579110
vt 0.964598 0.586932
vt 0.943877 0.431988
vt 0.929816 0.432451
vt 0.948413 0.011978
vt 0.969118 0.012800
vt 0.948790 0.446018
vt 0.932550 0.447093
vt 0.915591 0.432681
vt 0.927742 0.011435
vt 0.830521 0.430744
vt 0.989857 0.014039
vt 0.865977 0.606886
vt 0.877125 0.640069
vt 0.916924 0.447508
vt 0.821704 0.442625
vt 0.884732 0.606124
vt 0.892323 0.629398
vt 0.904887 0.661436
vt 0.875126 0.573322
vt 0.911820 0.644148
vt 0.891656 0.582437
vt 0.705888 0.496099
vt 0.933768 0.636158
vt 0.901269 0.432762
vt 0.907105 0.011048
vt 0.901573 0.447572
vt 0.939967 0.663559
vt 0.936169 0.645492
vt 0.844297 0.431486
vt 0.824476 0.011661
vt 0.839158 0.445245
vt 0.958038 0.552726
vt 0.948641 0.568471
vt 0.884587 0.506295
vt 0.985803 0.614040
vt 0.902731 0.506478
vt 0.921018 0.506143
vt 0.939665 0.505145
vt 0.958817 0.503341
vt 0.808991 0.499907
vt 0.828645 0.502540
vt 0.847756 0.504479
vt 0.670449 0.009689
vt 0.685330 0.009971
vt 0.655567 0.009407
vt 0.774619 0.011664
vt 0.759737 0.011381
vt 0.744856 0.011099
vt 0.729974 0.010817
vt 0.715093 0.010535
vt 0.700211 0.010253
vt 0.765414 0.497227
vt 0.640686 0.009125
vt 0.924918 0.543316
vt 0.978632 0.500625
vt 0.965933 0.443324
vt 0.957698 0.431570
vt 0.803733 0.012844
vt 0.924713 0.561913
vt 0.925529 0.571594
vn -0.939693 -0.341486 -0.019090
vn -0.939693 -0.341486 -0.019090
vn -0.939693 -0.341486 -0.019090
vn -0.939693 -0.341486 -0.019090
vn -0.499999 -0.864676 -0.048338
vn -0.499999 -0.864676 -0.048338
vn -0.499999 -0.864676 -0.048338
vn -0.499999 -0.864676 -0.048338
vn 0.173649 -0.983272 -0.054968
vn 0.173649 -0.983272 -0.054968
vn 0.173649 -0.983272 -0.054968
vn 0.173649 -0.983272 -0.054968
vn 0.766044 -0.641786 -0.035878
vn 0.766044 -0.641786 -0.035878
vn 0.766044 -0.641786 -0.035878
vn 0.766044 -0.641786 -0.035878
vn 1.000000 0.000001 0.000000
vn 1.000000 0.000001 0.000000
vn 1.000000 0.000001 0.000000
vn 1.000000 0.000001 0.000000
vn 0.766047 0.641783 0.035878
vn 0.766047 0.641783 0.035878
vn 0.766047 0.641783 0.035878
vn 0.766047 0.641783 0.035878
vn 0.173644 0.983273 0.054968
vn 0.173644 0.983273 0.054968
vn 0.173644 0.983273 0.054968
vn 0.173644 0.983273 0.054968
vn -0.500002 0.864674 0.048338
vn -0.500002 0.864674 0.048338
vn -0.500002 0.864674 0.048338
vn -0.500002 0.864674 0.048338
vn -0.939692 0.341488 0.019090
vn -0.939692 0.341488 0.019090
vn -0.939692 0.341488 0.019090
vn -0.939692 0.341488 0.019090
vn 0.000001 -0.055815 0.998441
vn 0.000003 -0.055815 0.998441
vn 0.000003 -0.055815 0.998441
vn 0.000002 -0.055815 0.998441
vn -0.000002 -0.055815 0.998441
vn -0.000002 -0.055815 0.998441
vn -0.000002 -0.055816 0.998441
vn -0.000002 -0.055816 0.998441
vn -0.000008 -0.055816 0.998441
vn -0.000008 -0.055816 0.998441
vn -0.000006 -0.055817 0.998441
vn -0.000006 -0.055817 0.998441
vn -0.000002 -0.055819 0.998441
vn -0.000002 -0.055819 0.998441
vn -0.000003 -0.055818 0.998441
vn -0.000003 -0.055818 0.998441
vn -0.000002 -0.055816 0.998441
vn -0.000001 -0.055816 0.998441
vn 0.939689 0.341338 0.021724
vn 0.939689 0.341321 0.022021
vn 0.939534 0.340403 0.037447
vn 0.939534 0.340402 0.037447
vn 0.499998 0.864857 0.044991
vn 0.499998 0.864840 0.045312
vn 0.499962 0.863913 0.060765
vn 0.499962 0.863913 0.060765
vn -0.173646 0.983514 0.050464
vn -0.173646 0.983504 0.050661
vn -0.173636 0.982564 0.066477
vn -0.173636 0.982564 0.066477
vn -0.766045 0.641801 0.035587
vn -0.766045 0.641803 0.035561
vn -0.765946 0.640806 0.051909
vn -0.765946 0.640806 0.051909
vn -0.999973 -0.000409 0.007321
vn -0.999975 -0.000395 0.007076
vn -0.999714 -0.001335 0.023883
vn -0.999714 -0.001335 0.023883
vn -0.765960 -0.642542 -0.021108
vn -0.765964 -0.642525 -0.021460
vn -0.765665 -0.643224 -0.004483
vn -0.765665 -0.643224 -0.004483
vn -0.173619 -0.984140 -0.036399
vn -0.173620 -0.984129 -0.036689
vn -0.173543 -0.984625 -0.019917
vn -0.173543 -0.984625 -0.019917
vn 0.499929 -0.865497 -0.031402
vn 0.499930 -0.865493 -0.031496
vn 0.499726 -0.866050 -0.015210
vn 0.499726 -0.866050 -0.015210
vn 0.939639 -0.342063 -0.008449
vn 0.939638 -0.342070 -0.008313
vn 0.939361 -0.342850 0.007441
vn 0.939361 -0.342850 0.007441
vn 0.934503 -0.333742 -0.123777
vn 0.934544 -0.333780 -0.123367
vn 0.497140 -0.853768 -0.154699
vn 0.497196 -0.853924 -0.153654
vn -0.172608 -0.971294 -0.163692
vn -0.172631 -0.971492 -0.162484
vn -0.761306 -0.631614 -0.146554
vn -0.761374 -0.631716 -0.145753
vn -0.993767 0.006222 -0.111306
vn -0.993767 0.006222 -0.111306
vn -0.761373 0.644027 -0.074435
vn -0.761304 0.644014 -0.075243
vn -0.172634 0.983549 -0.053191
vn -0.172611 0.983486 -0.054413
vn 0.497197 0.865729 -0.057518
vn 0.497141 0.865690 -0.058575
vn 0.934543 0.345452 -0.085397
vn 0.934502 0.345460 -0.085808
vn 0.938589 -0.343790 0.029315
vn 0.938627 -0.343756 0.028464
vn 0.499377 -0.866384 0.001567
vn 0.499430 -0.866354 -0.000608
vn -0.173418 -0.984842 -0.003658
vn -0.173440 -0.984825 -0.006161
vn -0.765010 -0.643818 0.016066
vn -0.765075 -0.643780 0.014418
vn -0.998669 -0.002879 0.051502
vn -0.998669 -0.002879 0.051501
vn -0.765073 0.638163 0.086084
vn -0.765009 0.638017 0.087725
vn -0.173443 0.979375 0.103645
vn -0.173421 0.979112 0.106133
vn 0.499431 0.861023 0.095957
vn 0.499378 0.860810 0.098122
vn 0.938627 0.338443 0.066601
vn 0.938589 0.338382 0.067451
vn 0.683464 -0.286678 0.671337
vn 0.683464 -0.286678 0.671337
vn 0.361180 -0.663201 0.655526
vn 0.361180 -0.663201 0.655526
vn -0.124123 -0.741885 0.658939
vn -0.124123 -0.741885 0.658939
vn -0.542535 -0.493935 0.679473
vn -0.542535 -0.493935 0.679473
vn -0.705641 -0.039549 0.707465
vn -0.705641 -0.039549 0.707465
vn -0.542531 0.415123 0.730297
vn -0.542531 0.415123 0.730297
vn -0.124126 0.663819 0.737520
vn -0.124126 0.663819 0.737520
vn 0.361181 0.586009 0.725357
vn 0.361181 0.586009 0.725357
vn 0.683463 0.210065 0.699108
vn 0.683463 0.210065 0.699108
s off
g pPipe1
usemtl lambert2SG
f 65/91/145 64/92/146 73/164/147 74/171/148
f 66/142/149 65/91/150 74/171/151 75/170/152
f 67/103/153 66/142/154 75/170/155 76/169/156
f 68/100/157 67/103/158 76/169/159 77/168/160
f 69/99/161 68/100/162 77/168/163 78/167/164
f 70/172/165 69/99/166 78/167/167 79/166/168
f 71/97/169 70/105/170 79/173/171 80/165/172
f 72/95/173 71/97/174 80/165/175 81/163/176
f 64/92/177 72/95/178 81/163/179 73/164/180
s 1
f 74/94/181 73/93/182 82/119/183 83/118/184
f 75/143/185 74/94/181 83/118/184 84/148/186
f 76/104/187 75/143/185 84/148/186 85/140/188
f 77/101/189 76/104/187 85/140/188 86/137/190
f 78/102/191 77/101/189 86/137/190 87/136/192
f 79/106/193 78/102/191 87/136/192 88/141/194
f 80/98/195 79/180/193 88/179/194 89/153/196
f 81/96/197 80/98/195 89/153/196 90/121/198
f 73/93/182 81/96/197 90/121/198 82/119/183
s 2
f 108/107/199 100/108/200 91/109/201 92/110/202
s 3
f 107/144/203 108/107/204 92/110/205 93/145/206
s 4
f 106/128/207 107/144/208 93/145/209 94/129/210
s 5
f 105/123/211 106/128/212 94/129/213 95/124/214
s 6
f 104/122/215 105/123/216 95/124/217 96/125/218
s 7
f 103/177/219 104/122/220 96/125/221 97/131/222
s 8
f 102/149/223 103/130/224 97/178/225 98/150/226
s 9
f 101/113/227 102/149/228 98/150/229 99/114/230
s 10
f 100/108/231 101/113/232 99/114/233 91/109/234
f 109/112/235 110/117/236 101/113/232 100/108/231
s 9
f 110/117/237 111/151/238 102/149/228 101/113/227
s 8
f 111/151/239 112/135/240 103/130/224 102/149/223
s 7
f 112/176/241 113/126/242 104/122/220 103/177/219
s 6
f 113/126/243 114/127/244 105/123/216 104/122/215
s 5
f 114/127/245 115/134/246 106/128/212 105/123/211
s 4
f 115/134/247 116/146/248 107/144/208 106/128/207
s 3
f 116/146/249 117/111/250 108/107/204 107/144/203
s 2
f 117/111/251 109/112/252 100/108/200 108/107/199
s 10
f 118/116/253 119/162/254 110/117/236 109/112/235
s 9
f 119/162/255 120/161/256 111/151/238 110/117/237
s 8
f 120/161/257 121/160/258 112/135/240 111/151/239
s 7
f 121/175/259 122/159/260 113/126/242 112/176/241
s 6
f 122/159/261 123/158/262 114/127/244 113/126/243
s 5
f 123/158/263 124/157/264 115/134/246 114/127/245
s 4
f 124/157/265 125/156/266 116/146/248 115/134/247
s 3
f 125/156/267 126/154/268 117/111/250 116/146/249
s 2
f 126/154/269 118/116/270 109/112/252 117/111/251
s 10
f 82/119/271 90/121/272 119/120/254 118/155/253
s 9
f 90/121/273 89/153/274 120/152/256 119/120/255
s 8
f 89/153/275 88/179/276 121/174/258 120/152/257
s 7
f 88/141/277 87/136/278 122/132/260 121/139/259
s 6
f 87/136/279 86/137/280 123/133/262 122/132/261
s 5
f 86/137/281 85/140/282 124/138/264 123/133/263
s 4
f 85/140/283 84/148/284 125/147/266 124/138/265
s 3
f 84/148/285 83/118/286 126/115/268 125/147/267
s 2
f 83/118/287 82/119/288 118/155/270 126/115/269
