# This file uses centimeters as units for non-parametric coordinates.

mtllib gun.mtl
g default
v -0.948581 4.759116 1.253010
v -0.970006 4.818934 1.240033
v -1.025683 4.850763 1.230408
v -1.089561 4.839709 1.228639
v -1.131750 4.790945 1.235554
v -1.132510 4.727287 1.247917
v -1.091484 4.678523 1.259943
v -1.027870 4.667469 1.266006
v -0.971433 4.699297 1.263268
v -1.075926 5.163263 3.326178
v -1.097351 5.223082 3.313200
v -1.153028 5.254910 3.303576
v -1.216906 5.243856 3.301807
v -1.259095 5.195092 3.308722
v -1.259855 5.131434 3.321084
v -1.218829 5.082669 3.333111
v -1.155215 5.071616 3.339173
v -1.098778 5.103445 3.336435
v -1.041454 5.163263 3.328295
v -1.070588 5.244605 3.310648
v -1.146299 5.287886 3.297561
v -1.233161 5.272855 3.295155
v -1.290530 5.206544 3.304558
v -1.291563 5.119982 3.321369
v -1.235776 5.053671 3.337723
v -1.149272 5.038640 3.345967
v -1.072529 5.081921 3.342243
v -0.814583 4.569375 0.440568
v -0.855228 4.682854 0.415950
v -0.960851 4.743235 0.397691
v -1.082031 4.722265 0.394336
v -1.162066 4.629756 0.407453
v -1.163506 4.508994 0.430906
v -1.085679 4.416485 0.453721
v -0.964999 4.395515 0.465222
v -0.857935 4.455896 0.460027
v -1.023630 5.074378 2.871717
v -1.052169 4.999674 2.884527
v -1.122651 4.959924 2.887947
v -1.202096 4.973729 2.880376
v -1.253331 5.034629 2.865356
v -1.252383 5.114128 2.849917
v -1.199694 5.175028 2.841281
v -1.119920 5.188833 2.843490
v -1.050387 5.149084 2.855510
v -0.988123 5.088661 2.947438
v -1.026624 4.987879 2.964720
v -1.121708 4.934255 2.969333
v -1.228885 4.952878 2.959119
v -1.298004 5.035036 2.938857
v -1.296725 5.142285 2.918029
v -1.225645 5.224443 2.906379
v -1.118024 5.243067 2.909359
v -1.024220 5.189442 2.925574
v -0.993475 5.154638 3.286831
v -1.035820 5.043795 3.305838
v -1.140397 4.984817 3.310911
v -1.258274 5.005300 3.299678
v -1.334293 5.095660 3.277393
v -1.332886 5.213616 3.254485
v -1.254710 5.303976 3.241672
v -1.136346 5.324459 3.244949
v -1.033176 5.265481 3.262784
vt 0.691006 0.495817
vt 0.676125 0.495535
vt 0.957879 0.609500
vt 0.949889 0.626529
vt 0.661244 0.495253
vt 0.955695 0.590810
vt 0.646362 0.494971
vt 0.943481 0.576526
vt 0.750532 0.496945
vt 0.735651 0.496663
vt 0.900056 0.623872
vt 0.894126 0.606113
vt 0.720769 0.496381
vt 0.915025 0.635156
vt 0.631481 0.494689
vt 0.899436 0.588380
vt 0.886923 0.432723
vt 0.872593 0.432678
vt 0.865838 0.010745
vt 0.886471 0.010801
vt 0.886306 0.447386
vt 0.870997 0.446870
vt 0.858363 0.432062
vt 0.845174 0.010992
vt 0.970314 0.645720
vt 0.866337 0.505648
vt 0.855391 0.446350
vt 0.957114 0.633039
vt 0.967583 0.611078
vt 0.981128 0.579110
vt 0.964598 0.586932
vt 0.943877 0.431988
vt 0.929816 0.432451
vt 0.948413 0.011978
vt 0.969118 0.012800
vt 0.948790 0.446018
vt 0.932550 0.447093
vt 0.915591 0.432681
vt 0.927742 0.011435
vt 0.830521 0.430744
vt 0.989857 0.014039
vt 0.865977 0.606886
vt 0.877125 0.640069
vt 0.916924 0.447508
vt 0.821704 0.442625
vt 0.884732 0.606124
vt 0.892323 0.629398
vt 0.904887 0.661436
vt 0.875126 0.573322
vt 0.911820 0.644148
vt 0.891656 0.582437
vt 0.705888 0.496099
vt 0.933768 0.636158
vt 0.901269 0.432762
vt 0.907105 0.011048
vt 0.901573 0.447572
vt 0.939967 0.663559
vt 0.936169 0.645492
vt 0.844297 0.431486
vt 0.824476 0.011661
vt 0.839158 0.445245
vt 0.958038 0.552726
vt 0.948641 0.568471
vt 0.884587 0.506295
vt 0.985803 0.614040
vt 0.902731 0.506478
vt 0.921018 0.506143
vt 0.939665 0.505145
vt 0.958817 0.503341
vt 0.808991 0.499907
vt 0.828645 0.502540
vt 0.847756 0.504479
vt 0.670449 0.009689
vt 0.685330 0.009971
vt 0.655567 0.009407
vt 0.774619 0.011664
vt 0.759737 0.011381
vt 0.744856 0.011099
vt 0.729974 0.010817
vt 0.715093 0.010535
vt 0.700211 0.010253
vt 0.765414 0.497227
vt 0.640686 0.009125
vt 0.924918 0.543316
vt 0.978632 0.500625
vt 0.965933 0.443324
vt 0.957698 0.431570
vt 0.803733 0.012844
vt 0.924713 0.561913
vt 0.925529 0.571594
vn -0.941930 -0.335723 0.007588
vn -0.941930 -0.335723 0.007588
vn -0.941930 -0.335723 0.007588
vn -0.941930 -0.335723 0.007588
vn -0.509199 -0.850084 0.134440
vn -0.509199 -0.850084 0.134440
vn -0.509199 -0.850084 0.134440
vn -0.509199 -0.850084 0.134440
vn 0.161789 -0.966679 0.198384
vn 0.161789 -0.966679 0.198384
vn 0.161789 -0.966679 0.198384
vn 0.161789 -0.966679 0.198384
vn 0.757078 -0.630953 0.169503
vn 0.757078 -0.630953 0.169503
vn 0.757078 -0.630953 0.169503
vn 0.757078 -0.630953 0.169503
vn 0.998119 0.000000 0.061310
vn 0.998119 0.000000 0.061310
vn 0.998119 0.000000 0.061310
vn 0.998119 0.000000 0.061310
vn 0.772131 0.630954 -0.075571
vn 0.772131 0.630954 -0.075571
vn 0.772131 0.630954 -0.075571
vn 0.772131 0.630954 -0.075571
vn 0.184850 0.966679 -0.177092
vn 0.184850 0.966679 -0.177092
vn 0.184850 0.966679 -0.177092
vn 0.184850 0.966679 -0.177092
vn -0.488920 0.850082 -0.195749
vn -0.488920 0.850082 -0.195749
vn -0.488920 0.850082 -0.195749
vn -0.488920 0.850082 -0.195749
vn -0.933920 0.335724 -0.122813
vn -0.933920 0.335724 -0.122813
vn -0.933920 0.335724 -0.122813
vn -0.933920 0.335724 -0.122813
vn -0.060182 0.190993 0.979745
vn -0.060186 0.190994 0.979744
vn -0.060186 0.190994 0.979744
vn -0.060182 0.190993 0.979745
vn -0.060175 0.190992 0.979745
vn -0.060175 0.190992 0.979745
vn -0.060175 0.190992 0.979745
vn -0.060175 0.190992 0.979745
vn -0.060173 0.190993 0.979745
vn -0.060173 0.190993 0.979745
vn -0.060178 0.190992 0.979745
vn -0.060178 0.190992 0.979745
vn -0.060184 0.190990 0.979745
vn -0.060184 0.190990 0.979745
vn -0.060178 0.190992 0.979745
vn -0.060178 0.190992 0.979745
vn -0.060179 0.190994 0.979745
vn -0.060179 0.190994 0.979745
vn 0.941768 0.336227 -0.005003
vn 0.941749 0.336284 -0.004712
vn 0.940664 0.339180 0.010430
vn 0.940664 0.339180 0.010430
vn 0.509400 0.849438 -0.137723
vn 0.509381 0.849500 -0.137409
vn 0.508412 0.852395 -0.122232
vn 0.508412 0.852395 -0.122232
vn -0.161516 0.965808 -0.202801
vn -0.161528 0.965846 -0.202609
vn -0.162472 0.968817 -0.187075
vn -0.162472 0.968817 -0.187075
vn -0.757059 0.630899 -0.169789
vn -0.757058 0.630894 -0.169814
vn -0.757946 0.633941 -0.153746
vn -0.757945 0.633941 -0.153746
vn -0.998533 0.001401 -0.054124
vn -0.998520 0.001354 -0.054365
vn -0.999273 0.004569 -0.037857
vn -0.999273 0.004569 -0.037857
vn -0.772935 -0.628062 0.090053
vn -0.772918 -0.628133 0.089708
vn -0.773639 -0.624642 0.106324
vn -0.773639 -0.624642 0.106324
vn -0.185941 -0.962961 0.195273
vn -0.185925 -0.963022 0.194989
vn -0.186852 -0.959385 0.211344
vn -0.186852 -0.959385 0.211344
vn 0.487828 -0.846722 0.212333
vn 0.487835 -0.846741 0.212241
vn 0.486655 -0.843283 0.228123
vn 0.486655 -0.843283 0.228123
vn 0.933225 -0.333670 0.133247
vn 0.933216 -0.333644 0.133380
vn 0.931991 -0.330532 0.148797
vn 0.931991 -0.330533 0.148797
vn 0.935078 -0.353916 0.019305
vn 0.935094 -0.353852 0.019713
vn 0.492549 -0.865620 0.089988
vn 0.492541 -0.865515 0.091041
vn -0.177173 -0.981757 0.069023
vn -0.177271 -0.981652 0.070239
vn -0.760669 -0.648263 -0.033717
vn -0.760787 -0.648166 -0.032921
vn -0.985188 -0.021293 -0.170150
vn -0.985188 -0.021293 -0.170149
vn -0.745824 0.606047 -0.276504
vn -0.745707 0.605836 -0.277278
vn -0.154344 0.940396 -0.303042
vn -0.154250 0.940035 -0.304207
vn 0.512710 0.825118 -0.237293
vn 0.512716 0.824822 -0.238310
vn 0.943060 0.313917 -0.109974
vn 0.943044 0.313824 -0.110376
vn 0.929906 -0.326075 0.170146
vn 0.929996 -0.326252 0.169317
vn 0.485304 -0.839489 0.244415
vn 0.485487 -0.839994 0.242307
vn -0.187697 -0.955604 0.227136
vn -0.187570 -0.956203 0.224710
vn -0.774216 -0.620173 0.126392
vn -0.774182 -0.620541 0.124785
vn -0.999894 0.009851 -0.010691
vn -0.999894 0.009851 -0.010691
vn -0.759146 0.639768 -0.119978
vn -0.759181 0.640029 -0.118351
vn -0.164535 0.974850 -0.150318
vn -0.164665 0.975206 -0.147845
vn 0.505746 0.858233 -0.087505
vn 0.505561 0.858558 -0.085361
vn 0.937997 0.344436 0.039063
vn 0.937907 0.344585 0.039898
vn 0.637961 -0.113104 0.761718
vn 0.637961 -0.113104 0.761718
vn 0.311558 -0.481986 0.818915
vn 0.311558 -0.481986 0.818915
vn -0.174221 -0.557427 0.811740
vn -0.174221 -0.557427 0.811740
vn -0.589334 -0.312023 0.745203
vn -0.589334 -0.312023 0.745203
vn -0.746963 0.135331 0.650947
vn -0.746963 0.135331 0.650947
vn -0.578666 0.581697 0.571642
vn -0.578666 0.581697 0.571642
vn -0.157734 0.824559 0.543344
vn -0.157734 0.824559 0.543344
vn 0.326209 0.746145 0.580393
vn 0.326209 0.746145 0.580393
vn 0.643787 0.375258 0.666873
vn 0.643787 0.375258 0.666873
s off
g pPipe2
usemtl lambert2SG
f 2/1/1 1/2/2 10/74/3 11/81/4
f 3/52/5 2/1/6 11/81/7 12/80/8
f 4/13/9 3/52/10 12/80/11 13/79/12
f 5/10/13 4/13/14 13/79/15 14/78/16
f 6/9/17 5/10/18 14/78/19 15/77/20
f 7/82/21 6/9/22 15/77/23 16/76/24
f 8/7/25 7/15/26 16/83/27 17/75/28
f 9/5/29 8/7/30 17/75/31 18/73/32
f 1/2/33 9/5/34 18/73/35 10/74/36
s 1
f 11/4/37 10/3/38 19/29/39 20/28/40
f 12/53/41 11/4/37 20/28/40 21/58/42
f 13/14/43 12/53/41 21/58/42 22/50/44
f 14/11/45 13/14/43 22/50/44 23/47/46
f 15/12/47 14/11/45 23/47/46 24/46/48
f 16/16/49 15/12/47 24/46/48 25/51/50
f 17/8/51 16/90/49 25/89/50 26/63/52
f 18/6/53 17/8/51 26/63/52 27/31/54
f 10/3/38 18/6/53 27/31/54 19/29/39
s 2
f 45/17/55 37/18/56 28/19/57 29/20/58
s 3
f 44/54/59 45/17/60 29/20/61 30/55/62
s 4
f 43/38/63 44/54/64 30/55/65 31/39/66
s 5
f 42/33/67 43/38/68 31/39/69 32/34/70
s 6
f 41/32/71 42/33/72 32/34/73 33/35/74
s 7
f 40/87/75 41/32/76 33/35/77 34/41/78
s 8
f 39/59/79 40/40/80 34/88/81 35/60/82
s 9
f 38/23/83 39/59/84 35/60/85 36/24/86
s 10
f 37/18/87 38/23/88 36/24/89 28/19/90
f 46/22/91 47/27/92 38/23/88 37/18/87
s 9
f 47/27/93 48/61/94 39/59/84 38/23/83
s 8
f 48/61/95 49/45/96 40/40/80 39/59/79
s 7
f 49/86/97 50/36/98 41/32/76 40/87/75
s 6
f 50/36/99 51/37/100 42/33/72 41/32/71
s 5
f 51/37/101 52/44/102 43/38/68 42/33/67
s 4
f 52/44/103 53/56/104 44/54/64 43/38/63
s 3
f 53/56/105 54/21/106 45/17/60 44/54/59
s 2
f 54/21/107 46/22/108 37/18/56 45/17/55
s 10
f 55/26/109 56/72/110 47/27/92 46/22/91
s 9
f 56/72/111 57/71/112 48/61/94 47/27/93
s 8
f 57/71/113 58/70/114 49/45/96 48/61/95
s 7
f 58/85/115 59/69/116 50/36/98 49/86/97
s 6
f 59/69/117 60/68/118 51/37/100 50/36/99
s 5
f 60/68/119 61/67/120 52/44/102 51/37/101
s 4
f 61/67/121 62/66/122 53/56/104 52/44/103
s 3
f 62/66/123 63/64/124 54/21/106 53/56/105
s 2
f 63/64/125 55/26/126 46/22/108 54/21/107
s 10
f 19/29/127 27/31/128 56/30/110 55/65/109
s 9
f 27/31/129 26/63/130 57/62/112 56/30/111
s 8
f 26/63/131 25/89/132 58/84/114 57/62/113
s 7
f 25/51/133 24/46/134 59/42/116 58/49/115
s 6
f 24/46/135 23/47/136 60/43/118 59/42/117
s 5
f 23/47/137 22/50/138 61/48/120 60/43/119
s 4
f 22/50/139 21/58/140 62/57/122 61/48/121
s 3
f 21/58/141 20/28/142 63/25/124 62/57/123
s 2
f 20/28/143 19/29/144 55/65/126 63/25/125
g default
v 0.938186 4.759116 1.284570
v 0.916005 4.818934 1.272931
v 0.859843 4.850763 1.266738
v 0.795976 4.839709 1.268889
v 0.754291 4.790945 1.278377
v 0.754291 4.727287 1.290764
v 0.795976 4.678523 1.300252
v 0.859843 4.667469 1.302403
v 0.916005 4.699297 1.296210
v 0.938186 5.163263 3.361645
v 0.916005 5.223082 3.350006
v 0.859843 5.254910 3.343813
v 0.795976 5.243856 3.345964
v 0.754291 5.195092 3.355452
v 0.754291 5.131434 3.367838
v 0.795976 5.082669 3.377327
v 0.859843 5.071616 3.379478
v 0.916005 5.103445 3.373284
v 0.972723 5.163263 3.361645
v 0.942561 5.244605 3.345818
v 0.866190 5.287886 3.337397
v 0.779344 5.272855 3.340321
v 0.722660 5.206544 3.353224
v 0.722660 5.119982 3.370067
v 0.779344 5.053671 3.382969
v 0.866190 5.038640 3.385894
v 0.942561 5.081921 3.377472
v 1.022121 4.569375 0.465442
v 0.980043 4.682854 0.443361
v 0.873499 4.743235 0.431613
v 0.752342 4.722265 0.435693
v 0.673262 4.629756 0.453693
v 0.673262 4.508994 0.477190
v 0.752342 4.416485 0.495190
v 0.873499 4.395515 0.499270
v 0.980043 4.455896 0.487522
v 0.962521 5.074378 2.904833
v 0.934821 4.999674 2.919369
v 0.864681 4.959924 2.927104
v 0.784921 4.973729 2.924417
v 0.732862 5.034629 2.912568
v 0.732862 5.114128 2.897099
v 0.784921 5.175028 2.885249
v 0.864681 5.188833 2.882563
v 0.934821 5.149084 2.890298
v 1.002603 5.088661 2.978235
v 0.965234 4.987879 2.997845
v 0.870612 4.934255 3.008279
v 0.763010 4.952878 3.004655
v 0.692779 5.035036 2.988669
v 0.692779 5.142285 2.967801
v 0.763011 5.224443 2.951815
v 0.870611 5.243067 2.948191
v 0.965234 5.189442 2.958625
v 1.018069 5.154638 3.317317
v 0.976969 5.043795 3.338885
v 0.872900 4.984817 3.350360
v 0.754556 5.005300 3.346375
v 0.677313 5.095660 3.328793
v 0.677313 5.213616 3.305841
v 0.754556 5.303976 3.288260
v 0.872900 5.324459 3.284274
v 0.976969 5.265481 3.295750
vt 0.691006 0.495817
vt 0.676125 0.495535
vt 0.957879 0.609500
vt 0.949889 0.626529
vt 0.661244 0.495253
vt 0.955695 0.590810
vt 0.646362 0.494971
vt 0.943481 0.576526
vt 0.750532 0.496945
vt 0.735651 0.496663
vt 0.900056 0.623872
vt 0.894126 0.606113
vt 0.720769 0.496381
vt 0.915025 0.635156
vt 0.631481 0.494689
vt 0.899436 0.588380
vt 0.886923 0.432723
vt 0.872593 0.432678
vt 0.865838 0.010745
vt 0.886471 0.010801
vt 0.886306 0.447386
vt 0.870997 0.446870
vt 0.858363 0.432062
vt 0.845174 0.010992
vt 0.970314 0.645720
vt 0.866337 0.505648
vt 0.855391 0.446350
vt 0.957114 0.633039
vt 0.967583 0.611078
vt 0.981128 0.579110
vt 0.964598 0.586932
vt 0.943877 0.431988
vt 0.929816 0.432451
vt 0.948413 0.011978
vt 0.969118 0.012800
vt 0.948790 0.446018
vt 0.932550 0.447093
vt 0.915591 0.432681
vt 0.927742 0.011435
vt 0.830521 0.430744
vt 0.989857 0.014039
vt 0.865977 0.606886
vt 0.877125 0.640069
vt 0.916924 0.447508
vt 0.821704 0.442625
vt 0.884732 0.606124
vt 0.892323 0.629398
vt 0.904887 0.661436
vt 0.875126 0.573322
vt 0.911820 0.644148
vt 0.891656 0.582437
vt 0.705888 0.496099
vt 0.933768 0.636158
vt 0.901269 0.432762
vt 0.907105 0.011048
vt 0.901573 0.447572
vt 0.939967 0.663559
vt 0.936169 0.645492
vt 0.844297 0.431486
vt 0.824476 0.011661
vt 0.839158 0.445245
vt 0.958038 0.552726
vt 0.948641 0.568471
vt 0.884587 0.506295
vt 0.985803 0.614040
vt 0.902731 0.506478
vt 0.921018 0.506143
vt 0.939665 0.505145
vt 0.958817 0.503341
vt 0.808991 0.499907
vt 0.828645 0.502540
vt 0.847756 0.504479
vt 0.670449 0.009689
vt 0.685330 0.009971
vt 0.655567 0.009407
vt 0.774619 0.011664
vt 0.759737 0.011381
vt 0.744856 0.011099
vt 0.729974 0.010817
vt 0.715093 0.010535
vt 0.700211 0.010253
vt 0.765414 0.497227
vt 0.640686 0.009125
vt 0.924918 0.543316
vt 0.978632 0.500625
vt 0.965933 0.443324
vt 0.957698 0.431570
vt 0.803733 0.012844
vt 0.924713 0.561913
vt 0.925529 0.571594
vn -0.939693 -0.335723 0.065323
vn -0.939693 -0.335723 0.065323
vn -0.939693 -0.335723 0.065323
vn -0.939693 -0.335723 0.065323
vn -0.499999 -0.850084 0.165406
vn -0.499999 -0.850084 0.165405
vn -0.499999 -0.850084 0.165405
vn -0.499999 -0.850084 0.165405
vn 0.173649 -0.966679 0.188092
vn 0.173649 -0.966679 0.188092
vn 0.173649 -0.966679 0.188092
vn 0.173649 -0.966679 0.188092
vn 0.766044 -0.630955 0.122768
vn 0.766044 -0.630955 0.122768
vn 0.766044 -0.630955 0.122768
vn 0.766044 -0.630955 0.122768
vn 1.000000 0.000001 0.000000
vn 1.000000 0.000001 0.000000
vn 1.000000 0.000001 0.000000
vn 1.000000 0.000001 0.000000
vn 0.766047 0.630952 -0.122768
vn 0.766047 0.630952 -0.122768
vn 0.766047 0.630952 -0.122768
vn 0.766047 0.630952 -0.122768
vn 0.173644 0.966680 -0.188092
vn 0.173644 0.966680 -0.188092
vn 0.173644 0.966680 -0.188092
vn 0.173644 0.966680 -0.188092
vn -0.500002 0.850082 -0.165405
vn -0.500002 0.850082 -0.165405
vn -0.500002 0.850082 -0.165405
vn -0.500002 0.850082 -0.165405
vn -0.939692 0.335725 -0.065324
vn -0.939692 0.335725 -0.065324
vn -0.939692 0.335725 -0.065324
vn -0.939692 0.335725 -0.065324
vn 0.000001 0.190995 0.981591
vn 0.000003 0.190995 0.981591
vn 0.000003 0.190995 0.981591
vn 0.000002 0.190995 0.981591
vn -0.000002 0.190994 0.981591
vn -0.000002 0.190994 0.981591
vn -0.000002 0.190993 0.981591
vn -0.000002 0.190993 0.981591
vn -0.000008 0.190994 0.981591
vn -0.000008 0.190994 0.981591
vn -0.000006 0.190993 0.981592
vn -0.000006 0.190993 0.981591
vn -0.000002 0.190991 0.981592
vn -0.000002 0.190991 0.981592
vn -0.000003 0.190991 0.981592
vn -0.000003 0.190991 0.981592
vn -0.000002 0.190994 0.981591
vn -0.000001 0.190994 0.981591
vn 0.939689 0.336226 -0.062734
vn 0.939689 0.336283 -0.062442
vn 0.939534 0.339179 -0.047262
vn 0.939534 0.339179 -0.047262
vn 0.499998 0.849438 -0.168694
vn 0.499998 0.849500 -0.168380
vn 0.499962 0.852395 -0.153172
vn 0.499962 0.852395 -0.153172
vn -0.173646 0.965808 -0.192517
vn -0.173646 0.965846 -0.192324
vn -0.173636 0.968817 -0.176762
vn -0.173636 0.968817 -0.176762
vn -0.766045 0.630899 -0.123054
vn -0.766045 0.630894 -0.123079
vn -0.765946 0.633940 -0.106987
vn -0.765946 0.633940 -0.106987
vn -0.999973 0.001401 0.007198
vn -0.999975 0.001354 0.006956
vn -0.999714 0.004569 0.023480
vn -0.999714 0.004569 0.023480
vn -0.765960 -0.628062 0.137272
vn -0.765964 -0.628133 0.136927
vn -0.765665 -0.624642 0.153556
vn -0.765665 -0.624642 0.153556
vn -0.173619 -0.962961 0.206306
vn -0.173620 -0.963022 0.206022
vn -0.173543 -0.959385 0.222402
vn -0.173543 -0.959385 0.222402
vn 0.499929 -0.846722 0.182025
vn 0.499930 -0.846741 0.181932
vn 0.499726 -0.843283 0.197857
vn 0.499726 -0.843283 0.197857
vn 0.939639 -0.333670 0.075781
vn 0.939638 -0.333644 0.075914
vn 0.939361 -0.330532 0.091378
vn 0.939361 -0.330532 0.091378
vn 0.934503 -0.353915 -0.038061
vn 0.934544 -0.353851 -0.037655
vn 0.497140 -0.865620 0.059622
vn 0.497196 -0.865514 0.060673
vn -0.172608 -0.981756 0.079755
vn -0.172631 -0.981652 0.080974
vn -0.761306 -0.648264 0.012982
vn -0.761374 -0.648166 0.013784
vn -0.993767 -0.021292 -0.109428
vn -0.993767 -0.021292 -0.109428
vn -0.761373 0.606048 -0.230256
vn -0.761304 0.605837 -0.231036
vn -0.172634 0.940395 -0.293009
vn -0.172611 0.940034 -0.294178
vn 0.497197 0.825118 -0.268281
vn 0.497141 0.824822 -0.269296
vn 0.934543 0.313917 -0.167587
vn 0.934502 0.313825 -0.167987
vn 0.938589 -0.326074 0.112813
vn 0.938627 -0.326250 0.111980
vn 0.499377 -0.839488 0.214203
vn 0.499430 -0.839994 0.212087
vn -0.173418 -0.955604 0.238217
vn -0.173440 -0.956202 0.235787
vn -0.765010 -0.620174 0.173621
vn -0.765075 -0.620542 0.172015
vn -0.998669 0.009852 0.050632
vn -0.998669 0.009852 0.050632
vn -0.765073 0.639768 -0.073210
vn -0.765009 0.640029 -0.071583
vn -0.173443 0.974850 -0.139947
vn -0.173421 0.975206 -0.137471
vn 0.499431 0.858233 -0.118347
vn 0.499378 0.858557 -0.116196
vn 0.938627 0.344437 -0.018519
vn 0.938589 0.344585 -0.017680
vn 0.683464 -0.113103 0.721169
vn 0.683464 -0.113103 0.721169
vn 0.361180 -0.481986 0.798273
vn 0.361180 -0.481986 0.798272
vn -0.124123 -0.557424 0.820897
vn -0.124123 -0.557424 0.820897
vn -0.542535 -0.312021 0.779935
vn -0.542535 -0.312021 0.779935
vn -0.705641 0.135332 0.695525
vn -0.705641 0.135332 0.695525
vn -0.542531 0.581696 0.606044
vn -0.542531 0.581696 0.606044
vn -0.124126 0.824557 0.551995
vn -0.124126 0.824557 0.551995
vn 0.361181 0.746141 0.559305
vn 0.361181 0.746141 0.559305
vn 0.683463 0.375257 0.626148
vn 0.683463 0.375257 0.626148
s off
g pPipe1
usemtl lambert2SG
f 65/91/145 64/92/146 73/164/147 74/171/148
f 66/142/149 65/91/150 74/171/151 75/170/152
f 67/103/153 66/142/154 75/170/155 76/169/156
f 68/100/157 67/103/158 76/169/159 77/168/160
f 69/99/161 68/100/162 77/168/163 78/167/164
f 70/172/165 69/99/166 78/167/167 79/166/168
f 71/97/169 70/105/170 79/173/171 80/165/172
f 72/95/173 71/97/174 80/165/175 81/163/176
f 64/92/177 72/95/178 81/163/179 73/164/180
s 1
f 74/94/181 73/93/182 82/119/183 83/118/184
f 75/143/185 74/94/181 83/118/184 84/148/186
f 76/104/187 75/143/185 84/148/186 85/140/188
f 77/101/189 76/104/187 85/140/188 86/137/190
f 78/102/191 77/101/189 86/137/190 87/136/192
f 79/106/193 78/102/191 87/136/192 88/141/194
f 80/98/195 79/180/193 88/179/194 89/153/196
f 81/96/197 80/98/195 89/153/196 90/121/198
f 73/93/182 81/96/197 90/121/198 82/119/183
s 2
f 108/107/199 100/108/200 91/109/201 92/110/202
s 3
f 107/144/203 108/107/204 92/110/205 93/145/206
s 4
f 106/128/207 107/144/208 93/145/209 94/129/210
s 5
f 105/123/211 106/128/212 94/129/213 95/124/214
s 6
f 104/122/215 105/123/216 95/124/217 96/125/218
s 7
f 103/177/219 104/122/220 96/125/221 97/131/222
s 8
f 102/149/223 103/130/224 97/178/225 98/150/226
s 9
f 101/113/227 102/149/228 98/150/229 99/114/230
s 10
f 100/108/231 101/113/232 99/114/233 91/109/234
f 109/112/235 110/117/236 101/113/232 100/108/231
s 9
f 110/117/237 111/151/238 102/149/228 101/113/227
s 8
f 111/151/239 112/135/240 103/130/224 102/149/223
s 7
f 112/176/241 113/126/242 104/122/220 103/177/219
s 6
f 113/126/243 114/127/244 105/123/216 104/122/215
s 5
f 114/127/245 115/134/246 106/128/212 105/123/211
s 4
f 115/134/247 116/146/248 107/144/208 106/128/207
s 3
f 116/146/249 117/111/250 108/107/204 107/144/203
s 2
f 117/111/251 109/112/252 100/108/200 108/107/199
s 10
f 118/116/253 119/162/254 110/117/236 109/112/235
s 9
f 119/162/255 120/161/256 111/151/238 110/117/237
s 8
f 120/161/257 121/160/258 112/135/240 111/151/239
s 7
f 121/175/259 122/159/260 113/126/242 112/176/241
s 6
f 122/159/261 123/158/262 114/127/244 113/126/243
s 5
f 123/158/263 124/157/264 115/134/246 114/127/245
s 4
f 124/157/265 125/156/266 116/146/248 115/134/247
s 3
f 125/156/267 126/154/268 117/111/250 116/146/249
s 2
f 126/154/269 118/116/270 109/112/252 117/111/251
s 10
f 82/119/271 90/121/272 119/120/254 118/155/253
s 9
f 90/121/273 89/153/274 120/152/256 119/120/255
s 8
f 89/153/275 88/179/276 121/174/258 120/152/257
s 7
f 88/141/277 87/136/278 122/132/260 121/139/259
s 6
f 87/136/279 86/137/280 123/133/262 122/132/261
s 5
f 86/137/281 85/140/282 124/138/264 123/133/263
s 4
f 85/140/283 84/148/284 125/147/266 124/138/265
s 3
f 84/148/285 83/118/286 126/115/268 125/147/267
s 2
f 83/118/287 82/119/288 118/155/270 126/115/269
