# This file uses centimeters as units for non-parametric coordinates.

mtllib Lazer.mtl
g default
v 1.309069 0.055534 -0.018044
v 1.309069 0.047240 -0.034322
v 1.309069 0.034322 -0.047240
v 1.309069 0.018044 -0.055534
v 1.309069 -0.000000 -0.058392
v 1.309069 -0.018044 -0.055534
v 1.309069 -0.034322 -0.047240
v 1.309069 -0.047240 -0.034322
v 1.309069 -0.055534 -0.018044
v 1.309069 -0.058392 0.000000
v 1.309069 -0.055534 0.018044
v 1.309069 -0.047240 0.034322
v 1.309069 -0.034322 0.047240
v 1.309069 -0.018044 0.055534
v 1.309069 -0.000000 0.058392
v 1.309069 0.018044 0.055534
v 1.309069 0.034322 0.047240
v 1.309069 0.047240 0.034322
v 1.309069 0.055534 0.018044
v 1.309069 0.058392 0.000000
v -1.309069 0.055534 -0.018044
v -1.309069 0.047240 -0.034322
v -1.309069 0.034322 -0.047240
v -1.309069 0.018044 -0.055534
v -1.309069 0.000000 -0.058392
v -1.309069 -0.018044 -0.055534
v -1.309069 -0.034322 -0.047240
v -1.309069 -0.047240 -0.034322
v -1.309069 -0.055534 -0.018044
v -1.309069 -0.058392 0.000000
v -1.309069 -0.055534 0.018044
v -1.309069 -0.047240 0.034322
v -1.309069 -0.034322 0.047240
v -1.309069 -0.018044 0.055534
v -1.309069 -0.000000 0.058392
v -1.309069 0.018044 0.055534
v -1.309069 0.034322 0.047240
v -1.309069 0.047240 0.034322
v -1.309069 0.055534 0.018044
v -1.309069 0.058392 0.000000
v 1.309069 -0.000000 0.000000
v -1.309069 0.000000 0.000000
vt 0.093841 0.001968
vt 0.105161 0.001898
vt 0.105172 0.999501
vt 0.093854 0.999432
vt 0.116442 0.002762
vt 0.116453 0.998637
vt 0.082143 0.002073
vt 0.082158 0.999327
vt 0.070234 0.002192
vt 0.070253 0.999208
vt 0.058323 0.002306
vt 0.058344 0.999095
vt 0.046450 0.002401
vt 0.046475 0.999000
vt 0.187379 0.003004
vt 0.201950 0.002838
vt 0.201947 0.998561
vt 0.187385 0.998394
vt 0.216756 0.002675
vt 0.216750 0.998724
vt 0.172666 0.003164
vt 0.172672 0.998235
vt 0.230975 0.002538
vt 0.230965 0.998861
vt 0.244952 0.002472
vt 0.244934 0.998927
vt 0.258605 0.002520
vt 0.258588 0.998879
vt 0.316717 0.013105
vt 0.321061 0.021629
vt 0.291978 0.031078
vt 0.322557 0.031078
vt 0.309952 0.006340
vt 0.321061 0.040528
vt 0.301428 0.001996
vt 0.316717 0.049052
vt 0.291978 0.000500
vt 0.309952 0.055817
vt 0.282529 0.001996
vt 0.301428 0.060161
vt 0.274005 0.006340
vt 0.291978 0.061657
vt 0.267240 0.013105
vt 0.282529 0.060161
vt 0.262896 0.021629
vt 0.274005 0.055817
vt 0.261399 0.031078
vt 0.267240 0.049052
vt 0.262896 0.040528
vt 0.385912 0.041067
vt 0.381568 0.049591
vt 0.356830 0.031618
vt 0.374803 0.056356
vt 0.387408 0.031618
vt 0.366279 0.060700
vt 0.385912 0.022168
vt 0.356830 0.062196
vt 0.381568 0.013644
vt 0.347380 0.060700
vt 0.374803 0.006879
vt 0.338856 0.056356
vt 0.366279 0.002535
vt 0.332091 0.049591
vt 0.356830 0.001039
vt 0.327747 0.041067
vt 0.347380 0.002535
vt 0.326251 0.031618
vt 0.338856 0.006879
vt 0.327747 0.022168
vt 0.332091 0.013644
vt 0.129873 0.003502
vt 0.129881 0.997897
vt 0.143555 0.003403
vt 0.143568 0.997996
vt 0.157801 0.003293
vt 0.157813 0.998106
vt 0.000194 0.002627
vt 0.011473 0.002574
vt 0.011502 0.998829
vt 0.000224 0.998777
vt 0.022825 0.002528
vt 0.022853 0.998874
vt 0.034500 0.002473
vt 0.034526 0.998928
vn 0.000000 0.951057 -0.309016
vn 0.000000 0.809017 -0.587785
vn 0.000000 0.809017 -0.587785
vn 0.000000 0.951057 -0.309016
vn 0.000000 0.587785 -0.809017
vn 0.000000 0.587785 -0.809017
vn 0.000000 0.309017 -0.951057
vn 0.000000 0.309017 -0.951057
vn -0.000000 -0.000000 -1.000000
vn -0.000000 -0.000000 -1.000000
vn -0.000000 -0.309017 -0.951056
vn -0.000000 -0.309017 -0.951056
vn -0.000000 -0.587785 -0.809017
vn -0.000000 -0.587785 -0.809017
vn -0.000000 -0.809017 -0.587785
vn -0.000000 -0.809017 -0.587785
vn -0.000000 -0.951057 -0.309017
vn -0.000000 -0.951057 -0.309017
vn -0.000000 -1.000000 0.000000
vn -0.000000 -1.000000 0.000000
vn -0.000000 -0.951056 0.309017
vn -0.000000 -0.951056 0.309017
vn -0.000000 -0.809017 0.587785
vn -0.000000 -0.809017 0.587785
vn -0.000000 -0.587785 0.809017
vn -0.000000 -0.587785 0.809017
vn -0.000000 -0.309017 0.951057
vn -0.000000 -0.309017 0.951057
vn 0.000000 0.000000 1.000000
vn 0.000000 0.000000 1.000000
vn 0.000000 0.309017 0.951056
vn 0.000000 0.309017 0.951056
vn 0.000000 0.587785 0.809017
vn 0.000000 0.587785 0.809017
vn 0.000000 0.809017 0.587785
vn 0.000000 0.809017 0.587785
vn 0.000000 0.951056 0.309017
vn 0.000000 0.951056 0.309017
vn 0.000000 1.000000 0.000001
vn 0.000000 1.000000 0.000001
vn 1.000000 -0.000000 0.000000
vn 1.000000 -0.000000 0.000000
vn 1.000000 -0.000000 0.000000
vn 1.000000 -0.000000 0.000000
vn 1.000000 -0.000000 0.000000
vn 1.000000 -0.000000 0.000000
vn 1.000000 -0.000000 0.000000
vn 1.000000 -0.000000 0.000000
vn 1.000000 -0.000000 0.000000
vn 1.000000 -0.000000 0.000000
vn 1.000000 -0.000000 0.000000
vn 1.000000 -0.000000 0.000000
vn 1.000000 -0.000000 0.000000
vn 1.000000 -0.000000 0.000000
vn 1.000000 -0.000000 0.000000
vn 1.000000 -0.000000 0.000000
vn 1.000000 -0.000000 0.000000
vn 1.000000 -0.000000 0.000000
vn 1.000000 -0.000000 0.000000
vn 1.000000 -0.000000 0.000000
vn 1.000000 -0.000000 0.000000
vn -1.000000 0.000000 0.000000
vn -1.000000 0.000000 0.000000
vn -1.000000 0.000000 0.000000
vn -1.000000 0.000000 0.000000
vn -1.000000 0.000000 0.000000
vn -1.000000 0.000000 0.000000
vn -1.000000 0.000000 0.000000
vn -1.000000 0.000000 0.000000
vn -1.000000 0.000000 0.000000
vn -1.000000 0.000000 0.000000
vn -1.000000 0.000000 0.000000
vn -1.000000 0.000000 0.000000
vn -1.000000 0.000000 0.000000
vn -1.000000 0.000000 0.000000
vn -1.000000 0.000000 0.000000
vn -1.000000 0.000000 0.000000
vn -1.000000 0.000000 0.000000
vn -1.000000 0.000000 0.000000
vn -1.000000 0.000000 0.000000
vn -1.000000 0.000000 0.000000
vn -1.000000 0.000000 0.000000
s 1
g pCylinder1
usemtl texturedFacets
f 1/1/1 2/2/2 22/3/3 21/4/4
f 2/2/2 3/5/5 23/6/6 22/3/3
f 3/5/5 4/71/7 24/72/8 23/6/6
f 4/71/7 5/73/9 25/74/10 24/72/8
f 5/73/9 6/75/11 26/76/12 25/74/10
f 6/75/11 7/21/13 27/22/14 26/76/12
f 7/21/13 8/15/15 28/18/16 27/22/14
f 8/15/15 9/16/17 29/17/18 28/18/16
f 9/16/17 10/19/19 30/20/20 29/17/18
f 10/19/19 11/23/21 31/24/22 30/20/20
f 11/23/21 12/25/23 32/26/24 31/24/22
f 12/25/23 13/27/25 33/28/26 32/26/24
f 13/77/25 14/78/27 34/79/28 33/80/26
f 14/78/27 15/81/29 35/82/30 34/79/28
f 15/81/29 16/83/31 36/84/32 35/82/30
f 16/83/31 17/13/33 37/14/34 36/84/32
f 17/13/33 18/11/35 38/12/36 37/14/34
f 18/11/35 19/9/37 39/10/38 38/12/36
f 19/9/37 20/7/39 40/8/40 39/10/38
f 20/7/39 1/1/1 21/4/4 40/8/40
s 2
f 2/29/41 1/30/42 41/31/43
f 3/33/44 2/29/41 41/31/43
f 4/35/45 3/33/44 41/31/43
f 5/37/46 4/35/45 41/31/43
f 6/39/47 5/37/46 41/31/43
f 7/41/48 6/39/47 41/31/43
f 8/43/49 7/41/48 41/31/43
f 9/45/50 8/43/49 41/31/43
f 10/47/51 9/45/50 41/31/43
f 11/49/52 10/47/51 41/31/43
f 12/48/53 11/49/52 41/31/43
f 13/46/54 12/48/53 41/31/43
f 14/44/55 13/46/54 41/31/43
f 15/42/56 14/44/55 41/31/43
f 16/40/57 15/42/56 41/31/43
f 17/38/58 16/40/57 41/31/43
f 18/36/59 17/38/58 41/31/43
f 19/34/60 18/36/59 41/31/43
f 20/32/61 19/34/60 41/31/43
f 1/30/42 20/32/61 41/31/43
s 3
f 21/50/62 22/51/63 42/52/64
f 22/51/63 23/53/65 42/52/64
f 23/53/65 24/55/66 42/52/64
f 24/55/66 25/57/67 42/52/64
f 25/57/67 26/59/68 42/52/64
f 26/59/68 27/61/69 42/52/64
f 27/61/69 28/63/70 42/52/64
f 28/63/70 29/65/71 42/52/64
f 29/65/71 30/67/72 42/52/64
f 30/67/72 31/69/73 42/52/64
f 31/69/73 32/70/74 42/52/64
f 32/70/74 33/68/75 42/52/64
f 33/68/75 34/66/76 42/52/64
f 34/66/76 35/64/77 42/52/64
f 35/64/77 36/62/78 42/52/64
f 36/62/78 37/60/79 42/52/64
f 37/60/79 38/58/80 42/52/64
f 38/58/80 39/56/81 42/52/64
f 39/56/81 40/54/82 42/52/64
f 40/54/82 21/50/62 42/52/64
